<svg xmlns="http://www.w3.org/2000/svg" viewBox="0 0 116.44 57.3"><defs><style>.cls-1{fill:#474a4f;}.cls-2,.cls-3{fill:none;stroke:#474a4f;}.cls-2{stroke-linecap:round;stroke-linejoin:round;stroke-width:0.89px;}.cls-3{stroke-miterlimit:10;stroke-width:1.18px;}.cls-4{fill:#fcf8ee;}</style></defs><g id="Layer_2" data-name="Layer 2"><g id="Layer_1-2" data-name="Layer 1"><path class="cls-1" d="M38.5,52.48l.09-.22.57.24-.11.27c-.11.27,0,.43.17.51s.35,0,.47-.26.1-.58-.16-1.1a1.66,1.66,0,0,1-.18-1.49.93.93,0,0,1,1.31-.59.91.91,0,0,1,.49,1.35l-.07.16-.58-.24.09-.2c.11-.28,0-.43-.15-.51s-.35,0-.46.25-.07.54.18,1.05a1.61,1.61,0,0,1,.16,1.52.93.93,0,0,1-1.33.61A.91.91,0,0,1,38.5,52.48Z"/><path class="cls-1" d="M43.46,51l.62.2-1.29,4-.62-.2Z"/><path class="cls-1" d="M46.14,51.75l.8.19L47,54.53h0l.57-2.45.57.14-.95,4.09-.66-.15L46.46,53h0l-.69,3-.57-.13Z"/><path class="cls-1" d="M49.81,55.79l.29-2.23a.92.92,0,0,1,1.11-.9A.9.9,0,0,1,52,53.81l-.06.44-.61-.08.06-.48c0-.27-.08-.4-.28-.43s-.34.07-.38.34l-.3,2.33c0,.27.08.4.27.42s.34-.06.38-.33l.08-.64.62.08-.08.59a1,1,0,1,1-1.92-.26Z"/><path class="cls-1" d="M54.19,53l1.8.07,0,.6-1.14,0,0,1.1.91,0,0,.6-.9,0-.06,1.29,1.14.05,0,.6L54,57.22Z"/><path class="cls-1" d="M61,56.69a1.94,1.94,0,0,1,.5-1.55,1.66,1.66,0,0,0,.51-1.3c0-.38-.18-.47-.39-.44s-.32.15-.29.45l0,.44-.63.07,0-.41a1,1,0,1,1,2-.21,2.27,2.27,0,0,1-.64,1.67c-.35.46-.43.68-.4,1v.09l1.25-.13.06.6-1.9.2Z"/><path class="cls-1" d="M65.24,55.58l-.44-2.16a1,1,0,1,1,2-.4l.44,2.16a1,1,0,1,1-2,.4Zm1.32-.23-.46-2.24c-.06-.29-.21-.38-.41-.34s-.32.18-.26.48l.46,2.24c.07.3.22.38.42.34S66.62,55.65,66.56,55.35Z"/><path class="cls-1" d="M69.68,55.11a1.88,1.88,0,0,1,.2-1.61,1.73,1.73,0,0,0,.25-1.38c-.11-.36-.26-.42-.47-.36s-.29.21-.2.5l.13.43-.6.18-.12-.39a1,1,0,1,1,1.89-.58,2.27,2.27,0,0,1-.32,1.76c-.26.52-.29.75-.21,1l0,.09,1.2-.37.17.58-1.82.55Z"/><path class="cls-1" d="M73.66,50.81l-.64.27-.17-.44c.51-.21.65-.4.63-.83l.41-.17,1.61,3.89-.61.25Z"/><path class="cls-1" d="M0,37.26H1v2.57H2.05V37.26H3v6.3h-1V40.73H1v2.83H0Z"/><path class="cls-1" d="M7.34,37.26H8.68l1,6.3h-1l-.18-1.25v0H7.41l-.18,1.23H6.31Zm1.08,4.22L8,38.36H8l-.44,3.12Z"/><path class="cls-1" d="M13,37.26h1.46c1,0,1.47.55,1.47,1.56v.62c0,1-.48,1.56-1.47,1.56H14v2.56H13Zm1.46,2.84c.31,0,.48-.15.48-.6v-.74c0-.45-.17-.6-.48-.6H14V40.1Z"/><path class="cls-1" d="M19.23,37.26h1.46c1,0,1.48.55,1.48,1.56v.62c0,1-.49,1.56-1.48,1.56h-.47v2.56h-1Zm1.46,2.84c.32,0,.49-.15.49-.6v-.74c0-.45-.17-.6-.49-.6h-.47V40.1Z"/><path class="cls-1" d="M26.36,40.88l-1.2-3.62h1.06l.67,2.32h0l.68-2.32h1l-1.2,3.62v2.68h-1Z"/><path class="cls-1" d="M36,40.75v-.67l2.75-1.19v.72l-1.9.8,1.9.8v.72Z"/><path class="cls-1" d="M42.41,37.26H43.9c1,0,1.47.48,1.47,1.45V39c0,.65-.2,1.06-.64,1.24v0c.53.18.74.64.74,1.31v.54A1.34,1.34,0,0,1,44,43.56H42.41Zm1.37,2.57c.37,0,.6-.16.6-.67v-.35c0-.45-.15-.65-.5-.65H43.4v1.67ZM44,42.66c.34,0,.52-.15.52-.62v-.55c0-.58-.19-.76-.64-.76H43.4v1.93Z"/><path class="cls-1" d="M48.76,42.07V38.76a1.51,1.51,0,1,1,3,0v3.31a1.51,1.51,0,1,1-3,0Zm2,.06V38.69c0-.45-.2-.62-.52-.62s-.51.17-.51.62v3.44c0,.45.2.62.51.62S50.78,42.58,50.78,42.13Z"/><path class="cls-1" d="M55.15,42.07V38.76a1.51,1.51,0,1,1,3,0v3.31a1.51,1.51,0,1,1-3,0Zm2,.06V38.69c0-.45-.2-.62-.51-.62s-.52.17-.52.62v3.44c0,.45.2.62.52.62S57.17,42.58,57.17,42.13Z"/><path class="cls-1" d="M62.35,38.16h-1v-.9h3.06v.9h-1v5.4h-1Z"/><path class="cls-1" d="M67.76,41.21l1.9-.8-1.9-.8v-.72l2.76,1.19v.67l-2.76,1.18Z"/><path class="cls-1" d="M74,42.11V38.72a1.46,1.46,0,1,1,2.92,0v.67H76v-.73c0-.42-.2-.59-.49-.59s-.5.17-.5.59v3.52c0,.41.2.57.5.57s.49-.16.49-.57v-1h.94v.9a1.46,1.46,0,1,1-2.92,0Z"/><path class="cls-1" d="M81,37.26h1.34l1,6.3h-1l-.18-1.25v0H81.11l-.18,1.23H80Zm1.08,4.22-.45-3.12h0l-.44,3.12Z"/><path class="cls-1" d="M86.67,37.26h1.41l.63,4.51h0l.63-4.51h1.41v6.3h-.93V38.79h0l-.72,4.77h-.83l-.72-4.77h0v4.77h-.86Z"/><path class="cls-1" d="M94.3,37.26h1.46c1,0,1.48.55,1.48,1.56v.62c0,1-.49,1.56-1.48,1.56h-.47v2.56h-1Zm1.46,2.84c.31,0,.49-.15.49-.6v-.74c0-.45-.18-.6-.49-.6h-.47V40.1Z"/><path class="cls-1" d="M100.57,37.26h2.7v.9h-1.71v1.67h1.36v.9h-1.36v1.93h1.71v.9h-2.7Z"/><path class="cls-1" d="M106.62,37.26h1.47c1,0,1.47.48,1.47,1.45v.39c0,.65-.21,1.06-.65,1.24v0c.49.15.66.62.66,1.33V42.8a2,2,0,0,0,.1.76h-1a1.81,1.81,0,0,1-.09-.77V41.64c0-.59-.18-.78-.63-.78h-.34v2.7h-1ZM108,40c.37,0,.6-.16.6-.66v-.49c0-.45-.16-.65-.51-.65h-.45V40Z"/><path class="cls-1" d="M112.87,42.07v-.36h.93v.43c0,.45.2.61.52.61s.51-.16.51-.63-.2-.85-.85-1.42a2.45,2.45,0,0,1-1.09-2,1.38,1.38,0,0,1,1.47-1.57c1,0,1.44.58,1.44,1.59V39h-.93v-.33c0-.45-.18-.62-.5-.62s-.49.17-.49.61.2.79.85,1.36a2.41,2.41,0,0,1,1.09,2c0,1-.52,1.6-1.49,1.6S112.87,43.08,112.87,42.07Z"/><line class="cls-2" x1="50.95" y1="48.51" x2="63.55" y2="48.51"/><line class="cls-3" x1="116.44" y1="32.35" x2="0.87" y2="32.35"/><path class="cls-1" d="M49,28.27a3.89,3.89,0,1,1-3.89-3.89A3.9,3.9,0,0,1,49,28.27Z"/><path class="cls-4" d="M46.63,28.27a1.49,1.49,0,1,1-1.49-1.49A1.49,1.49,0,0,1,46.63,28.27Z"/><path class="cls-1" d="M78.11,28.27a3.9,3.9,0,1,1-3.9-3.89A3.91,3.91,0,0,1,78.11,28.27Z"/><path class="cls-4" d="M75.71,28.27a1.5,1.5,0,1,1-1.5-1.49A1.5,1.5,0,0,1,75.71,28.27Z"/><path class="cls-1" d="M86.08,6.38H83.79s0,0,0-.07V6.14a1,1,0,0,0-1-1H77.08a1,1,0,0,0-1,1v.17a.17.17,0,0,0,0,.07H74.71A.83.83,0,0,1,74,5.94l-1.06-2a.71.71,0,0,0-.63-.39H45.14c-3.24,0-10.59-.1-12.85,3.85S34,11.89,34,11.89H44a1.19,1.19,0,0,1,1.19,1.19v.36H38.29a1,1,0,0,0-.89.58l-2.13,4.86a1.45,1.45,0,0,1-.46.58l-3.54,2.62a1.33,1.33,0,0,0-.53,1.05v4.42a.72.72,0,0,0,.72.72H39a1.09,1.09,0,0,0,1.08-.91,5.16,5.16,0,0,1,10.19.18.87.87,0,0,0,.87.73H68.07a1.08,1.08,0,0,0,1.06-.9,5.16,5.16,0,0,1,10.25.9h2.26a1.34,1.34,0,0,0,1-.46l3.71-4.23a1.68,1.68,0,0,0,.41-1.09V7.08A.7.7,0,0,0,86.08,6.38Z"/><path class="cls-4" d="M38.39,15l-1.52,3.48a.21.21,0,0,0,.19.3h8.1a.26.26,0,0,0,.25-.26V15.06a.27.27,0,0,0-.27-.28H38.78A.43.43,0,0,0,38.39,15Z"/><rect class="cls-4" x="70.08" y="13.64" width="12.02" height="5.7" rx="1.75"/><path class="cls-4" d="M44.83,6a.7.7,0,0,1,.7.71V9.11a.7.7,0,0,1-.7.71H37.6a.71.71,0,0,1-.71-.71S36.62,6.24,41,6Z"/><path class="cls-4" d="M66.7,27H61.83a1.08,1.08,0,0,1-1.07-1.08V14.55a1.08,1.08,0,0,1,1.07-1.09H66.7a1.08,1.08,0,0,1,1.06,1.09V25.88A1.08,1.08,0,0,1,66.7,27ZM61.83,13.82a.72.72,0,0,0-.7.73V25.88a.71.71,0,0,0,.7.72H66.7a.72.72,0,0,0,.7-.72V14.55a.72.72,0,0,0-.7-.73Z"/><path class="cls-4" d="M62,21.59h0a.29.29,0,0,1-.29-.28v-1A.29.29,0,0,1,62,20h0a.29.29,0,0,1,.28.28v1A.29.29,0,0,1,62,21.59Z"/><rect class="cls-4" x="61.66" y="14.35" width="5.19" height="3.67" rx="0.61"/><path class="cls-1" d="M13.57.09A12.54,12.54,0,0,1,9.4,7.57h2.28s-.78,3.54-5.27,6h4.33a25,25,0,0,1-7.48,7.91H8.38s-1.58,3.82-6.89,7.6H11.92V32a.41.41,0,0,0,.41.41H15a.41.41,0,0,0,.41-.41v-2.9H25.82c-5.31-3.78-6.89-7.6-6.89-7.6h5.12a24.82,24.82,0,0,1-7.48-7.91H20.9c-4.49-2.44-5.28-6-5.28-6h2.29A12.54,12.54,0,0,1,13.74.09S13.65-.11,13.57.09Z"/><path class="cls-1" d="M101,.09a12.59,12.59,0,0,1-4.18,7.48h2.29s-.79,3.54-5.28,6h4.33a24.82,24.82,0,0,1-7.48,7.91h5.12s-1.58,3.82-6.89,7.6H99.35V32a.41.41,0,0,0,.41.41h2.65a.41.41,0,0,0,.41-.41v-2.9h10.43c-5.31-3.78-6.89-7.6-6.89-7.6h5.12A25,25,0,0,1,104,13.55h4.33c-4.49-2.44-5.27-6-5.27-6h2.28A12.54,12.54,0,0,1,101.17.09S101.09-.11,101,.09Z"/></g></g></svg>